<svg width="20" height="24" viewBox="0 0 20 24" fill="none" xmlns="http://www.w3.org/2000/svg">
<path d="M16.7584 22H3.2416C2.5632 22 2 21.4069 2 20.6621V10.3724C2 10.0414 2.1152 9.72414 2.32 9.47586L9.0784 1.43448C9.5648 0.855172 10.4224 0.855172 10.9216 1.43448L17.68 9.47586C17.8848 9.72414 18 10.0414 18 10.3724V20.6621C18 21.3931 17.4496 22 16.7584 22Z" stroke="#FF9900" stroke-width="2" stroke-miterlimit="10"/>
<path d="M9.45131 19.9236C8.94096 19.7564 8.59613 19.45 8.472 18.9068C8.472 18.8928 8.4582 18.8789 8.4582 18.865C8.4582 18.67 8.38924 18.5585 8.16855 18.5167C7.82372 18.4332 7.672 18.0014 7.83751 17.6671C7.87889 17.5835 7.89269 17.5417 7.79613 17.486C7.38234 17.1656 7.47889 16.5249 7.96165 16.3438C8.072 16.302 8.11338 16.2463 8.09958 16.1349C8.08579 16.0373 8.11338 15.9538 8.08579 15.8563C8.00303 15.7588 8.04441 15.6334 8.01682 15.5359C8.00303 15.4523 8.00303 15.3827 7.97544 15.2991C7.94786 15.0762 7.89269 14.8673 7.82372 14.6584C7.64441 14.0315 7.32717 13.5022 6.92717 13.0008C6.84441 12.9033 6.77544 12.7918 6.69269 12.6943C6.43062 12.2765 6.23751 11.8447 6.09958 11.3711C6.0582 11.2318 6.04441 11.1064 6.01682 10.9671C6.00303 10.9114 5.98924 10.8557 6.03062 10.8C5.94786 10.0757 6.03062 9.36527 6.30648 8.68274C6.88579 7.28982 7.96165 6.49585 9.39613 6.14762C9.42372 6.13369 9.45131 6.13369 9.49269 6.11976C9.6582 6.00833 9.8651 6.05012 10.0444 6.00833C10.2789 5.9944 10.5272 5.9944 10.7617 6.03619C10.9548 6.05012 11.1341 6.09191 11.3134 6.14762C11.7823 6.28691 12.2237 6.49585 12.6237 6.78837C12.6375 6.80229 12.6513 6.8023 12.6651 6.81622C12.872 6.9973 13.0927 7.16445 13.2858 7.37339C13.3134 7.41518 13.341 7.44304 13.341 7.48483C13.5479 7.73555 13.741 8.00021 13.9203 8.27879C13.9892 8.40415 14.003 8.50166 13.8789 8.58523C13.741 8.68274 13.672 8.58523 13.603 8.48773C13.4513 8.25093 13.2858 8.01413 13.1065 7.8052C12.472 7.06695 11.6996 6.57943 10.7203 6.45406C10.6789 6.45406 10.6375 6.45406 10.5961 6.45406C10.1961 6.39835 9.82372 6.46799 9.43751 6.53764C7.90648 6.91373 6.89958 7.84698 6.49958 9.40705C6.44441 9.61599 6.43062 9.83886 6.41682 10.0478C6.36165 10.3821 6.43062 10.7025 6.48579 11.0228C6.60993 11.6914 6.89958 12.2765 7.34096 12.8058C7.47889 12.959 7.58924 13.1261 7.69958 13.3072C7.94786 13.739 8.15475 14.1708 8.29269 14.6444C8.41682 15.0902 8.49958 15.5498 8.49958 16.0095C8.49958 16.2184 8.51338 16.2184 8.72027 16.2324C8.78924 16.2324 8.8582 16.2324 8.92717 16.2324C9.20303 16.2324 9.47889 16.2324 9.76855 16.2324C9.85131 16.2324 9.90648 16.2184 9.90648 16.107C9.87889 15.2295 9.76855 14.3519 9.53407 13.5162C9.47889 13.3212 9.39613 13.1401 9.32717 12.959C9.29958 12.8754 9.2582 12.8476 9.17544 12.9033C9.09269 12.959 8.99613 12.959 8.92717 12.8754C8.84441 12.7918 8.84441 12.6943 8.89958 12.6108C9.09269 12.2904 9.35475 12.1093 9.72717 12.3043C9.96165 12.4297 10.1961 12.4158 10.4444 12.2625C10.872 11.984 11.1341 12.1093 11.4375 12.4436C11.5203 12.5272 11.5479 12.6386 11.4789 12.7361C11.3961 12.8336 11.2996 12.8476 11.1892 12.7779C11.0927 12.7222 11.0927 12.7918 11.0927 12.8476C11.0513 13.0983 11.0237 13.3629 11.0237 13.6276C11.0237 14.1569 11.0099 14.6723 11.0237 15.2016C11.0375 15.4941 11.0513 15.8006 11.0789 16.0931C11.0927 16.2184 11.1479 16.2602 11.2582 16.2602C11.4651 16.2602 11.672 16.2463 11.8927 16.2602C12.0168 16.2602 12.072 16.2324 12.0582 16.0791C12.0306 15.2991 12.1685 14.533 12.4858 13.8226C12.6513 13.4465 12.872 13.1122 13.1341 12.8058C13.603 12.2208 13.9341 11.5661 14.0306 10.8139C14.0582 10.5771 14.0996 10.3403 14.0582 10.1035C14.0444 10.0339 14.0444 9.95029 14.0582 9.88065C14.072 9.78314 14.1134 9.7135 14.2237 9.72743C14.3479 9.74135 14.4168 9.811 14.4168 9.93636C14.4168 9.99208 14.4306 10.0478 14.4444 10.0896C14.4996 10.1453 14.4858 10.2149 14.4858 10.2846C14.4858 10.8696 14.3754 11.4268 14.1272 11.9561C13.9341 12.4158 13.6582 12.8197 13.341 13.1958C13.1203 13.4604 12.9548 13.753 12.8168 14.0733C12.7479 14.2544 12.6789 14.4355 12.6237 14.6305C12.5548 14.8394 12.5272 15.0484 12.4996 15.2573C12.472 15.5638 12.4444 15.8702 12.4858 16.1906C12.4996 16.2602 12.5272 16.302 12.5823 16.3438C12.6927 16.3995 12.7754 16.4831 12.8444 16.5806C12.9548 16.7756 12.9961 16.9706 12.9272 17.1935C12.872 17.3188 12.803 17.4303 12.7065 17.4999C12.6099 17.5696 12.6099 17.6392 12.6513 17.7367C12.6789 17.7924 12.6927 17.8481 12.6927 17.9039C12.6927 18.266 12.5272 18.4889 12.1823 18.6003C12.0858 18.6282 12.0582 18.6839 12.0306 18.7675C11.9892 18.9903 11.9203 19.1993 11.8099 19.4082C11.7134 19.5754 11.603 19.7286 11.4513 19.8261C11.4099 19.8539 11.3685 19.8818 11.3272 19.9097C11.1892 19.9793 11.0513 20.0072 10.8996 20.035C10.8306 20.049 10.7754 20.049 10.7203 20.0072C10.4996 20.0072 10.2927 20.0072 10.072 19.9932C9.83751 20.0629 9.64441 20.0211 9.45131 19.9236Z" fill="black" stroke="black" stroke-width="0.5" stroke-miterlimit="10"/>
<path d="M10.6375 6.39834C11.2582 6.44013 11.81 6.66299 12.3203 6.99729C12.872 7.37338 13.2858 7.8609 13.6306 8.41807C13.6996 8.51558 13.7686 8.58522 13.8927 8.55736C13.9893 8.86381 14.072 9.17025 14.1548 9.46276C14.1686 9.53241 14.1686 9.61598 14.1824 9.68563C14.072 9.72742 14.0306 9.81099 14.0444 9.92242C14.1548 11.0228 13.7824 11.97 13.1065 12.8058C12.3065 13.7808 12.0031 14.9091 12.072 16.1627C12.072 16.2463 12.072 16.2741 11.9893 16.2741C11.6858 16.2741 11.3824 16.2741 11.0927 16.2741C11.01 16.2741 10.9962 16.2463 10.9962 16.1766C10.9272 15.0762 10.872 13.9758 10.9962 12.8754C11.01 12.7918 11.0237 12.7083 11.0375 12.6247C11.1065 12.6386 11.1341 12.6943 11.1755 12.7361C11.2444 12.7779 11.3272 12.7779 11.3824 12.7222C11.4375 12.6665 11.4651 12.5829 11.41 12.5133C11.1341 12.179 10.8444 11.9839 10.4168 12.2765C10.1962 12.4297 9.98926 12.4575 9.75478 12.36C9.7134 12.3461 9.67202 12.3322 9.63064 12.3043C9.24444 12.1093 9.02375 12.374 8.85823 12.6665C8.81685 12.7361 8.85823 12.8197 8.92719 12.8615C8.99616 12.9033 9.06513 12.9033 9.1203 12.8476C9.16168 12.8197 9.17547 12.7779 9.21685 12.7222C9.42375 13.0704 9.53409 13.4465 9.63064 13.8226C9.82375 14.5887 9.89271 15.3827 9.93409 16.1766C9.93409 16.2602 9.9065 16.2741 9.83754 16.2741C9.53409 16.2741 9.23064 16.2741 8.92719 16.2602C8.85823 16.1906 8.87202 16.0931 8.87202 16.0095C8.87202 15.6613 8.87202 15.327 8.77547 14.9787C8.74788 14.8812 8.69271 14.7837 8.67892 14.6723C8.65133 14.4216 8.52719 14.1848 8.43064 13.9619C8.29271 13.6833 8.12719 13.4187 7.96168 13.154C7.75478 12.7779 7.56168 12.3879 7.40995 11.9839C7.29961 11.6775 7.21685 11.3711 7.14788 11.0507C7.03754 10.5492 7.06513 10.0478 7.1203 9.54634C7.21685 9.28168 7.23064 8.98917 7.36857 8.73844C7.79616 7.77733 8.48581 7.0948 9.42375 6.64906C9.80995 6.50977 10.1962 6.38441 10.6375 6.39834Z" fill="#FF9900"/>
<path d="M12.2789 16.6363C12.4444 16.6781 12.541 16.7895 12.5548 16.9427C12.5548 17.1099 12.4582 17.2213 12.2789 17.2631C12.2375 17.291 12.1962 17.277 12.1548 17.277C10.872 17.277 9.58926 17.277 8.29271 17.277C8.25133 17.277 8.20995 17.277 8.16857 17.2631C7.98926 17.2492 7.87892 17.1378 7.86512 16.9706C7.85133 16.8313 7.97547 16.692 8.12719 16.6502C8.20995 16.7617 8.16857 16.8731 8.18236 16.9985C8.18236 17.096 8.19616 17.1795 8.3203 17.1795C8.47202 17.1795 8.5134 17.1656 8.54099 17.0124C8.55478 16.9288 8.56857 16.8592 8.60995 16.7756C8.65133 16.6781 8.7203 16.6224 8.83064 16.6224C9.97547 16.6224 11.1065 16.6224 12.2513 16.6224C12.2513 16.6224 12.2651 16.6363 12.2789 16.6363Z" fill="#FDFDFD"/>
<path d="M9.18926 18.5585C9.98926 18.5585 10.7893 18.5585 11.5893 18.5446C11.6858 18.5446 11.6858 18.5864 11.6582 18.656C11.6306 18.7396 11.6168 18.8232 11.603 18.9068C11.4513 19.4221 11.1755 19.645 10.6375 19.6311C10.2513 19.6311 9.86512 19.6729 9.4927 19.5475C9.27201 19.4779 9.07891 19.3664 8.95477 19.1575C9.00995 19.1018 9.06512 19.1157 9.13408 19.1157C9.32719 19.1018 9.32719 19.1157 9.25822 18.9207C9.23064 18.8232 9.17546 18.6978 9.18926 18.5585Z" fill="#FEFEFE"/>
<path d="M8.1272 17.876C8.15478 17.7088 8.27892 17.6671 8.41685 17.6671C8.63754 17.6671 8.85823 17.6671 9.07892 17.6671C10.0306 17.6671 10.9824 17.6671 11.9479 17.6671C12.1962 17.6671 12.3341 17.7785 12.3065 17.9735C12.2927 18.0989 12.2375 18.1964 12.0996 18.2103C12.0582 18.2382 12.0031 18.2242 11.9617 18.2242C10.9548 18.2242 9.94789 18.2242 8.94099 18.2242C8.81685 18.2242 8.73409 18.1964 8.69271 18.071C8.65134 17.9596 8.58237 17.9317 8.47202 17.9317C8.34789 17.9178 8.22375 17.9317 8.1272 17.876Z" fill="#FDFDFD"/>
<path d="M7.16163 9.56028C7.14784 9.76921 7.13405 9.97815 7.12025 10.1871C7.10646 10.4935 7.14784 10.8139 7.18922 11.1203C7.21681 11.1621 7.20301 11.2039 7.20301 11.2457C7.2306 11.3711 7.17543 11.4129 7.06508 11.4268C6.88577 11.4546 6.88577 11.4546 6.88577 11.6497C6.88577 12.0118 6.85818 11.984 7.20301 11.984C7.28577 11.984 7.36853 11.97 7.45129 12.0257C7.61681 12.4158 7.79612 12.7918 7.98922 13.1679C8.05819 13.349 8.0306 13.3769 7.85129 13.3769C7.78232 13.3769 7.71336 13.3769 7.65818 13.3351C7.4237 12.959 7.10646 12.6386 6.88577 12.2486C6.52715 11.6218 6.36163 10.9532 6.36163 10.2428C6.36163 10.1871 6.37543 10.1314 6.37543 10.0896C6.44439 10.0339 6.52715 10.0478 6.60991 10.0478C6.77543 10.0478 6.78922 10.0339 6.78922 9.86672C6.78922 9.72743 6.77543 9.60206 6.81681 9.46277C6.8306 9.44884 6.84439 9.43491 6.85818 9.42098C6.91336 9.39313 6.96853 9.39313 7.0375 9.39313C7.14784 9.3792 7.20301 9.43491 7.16163 9.56028Z" fill="#FEFEFE"/>
<path d="M9.58923 12.6665C10.0168 12.8476 10.3754 12.8058 10.7203 12.4854C10.5685 13.2794 10.5685 14.0455 10.5961 14.8116C10.6099 15.2573 10.6237 15.717 10.6651 16.1627C10.6789 16.2741 10.6375 16.302 10.541 16.2881C10.5134 16.2881 10.4996 16.2881 10.472 16.2881C10.3203 16.3159 10.3065 16.2463 10.2927 16.107C10.2513 15.2155 10.1547 14.338 9.92027 13.4744C9.82372 13.2097 9.71337 12.9451 9.58923 12.6665Z" fill="#FF9900"/>
<path d="M9.41 6.73263C9.0238 6.92764 8.66517 7.16444 8.34793 7.47088C8.00311 7.80518 7.69966 8.18127 7.49276 8.61307C7.46517 8.66879 7.43759 8.71058 7.41 8.7663C7.31345 8.84987 7.20311 8.80808 7.10655 8.82201C6.89966 8.82201 6.89966 8.83594 6.88586 9.04488C6.88586 9.17024 6.92724 9.30953 6.84448 9.42097C6.76173 9.49061 6.66517 9.47669 6.56862 9.46276C6.52724 9.44883 6.47207 9.44883 6.48586 9.37918C6.61 8.73844 6.91345 8.18127 7.34104 7.70768C7.89276 7.09479 8.56862 6.7187 9.35483 6.50977C9.36862 6.50977 9.39621 6.50977 9.4238 6.50977C9.47897 6.56548 9.47897 6.64906 9.41 6.73263Z" fill="#FEFEFE"/>
<path d="M8.7341 14.6583C8.72031 14.7837 8.80307 14.8812 8.83065 14.9926C8.9272 15.3687 8.941 15.7448 8.92721 16.1348C8.92721 16.1766 8.92721 16.2323 8.92721 16.2741C8.78927 16.2741 8.66514 16.2741 8.5272 16.2881C8.47203 16.2881 8.43065 16.2881 8.44445 16.2184C8.47203 15.6752 8.37548 15.1598 8.25134 14.6305C8.41686 14.5469 8.58238 14.519 8.7341 14.6583Z" fill="#FAFAF9"/>
<path d="M8.73413 14.6583C8.56861 14.5887 8.40309 14.6444 8.25137 14.6305C8.09964 14.1848 7.90654 13.739 7.65826 13.3351C7.72723 13.3351 7.7824 13.3211 7.85137 13.3351C7.9893 13.3629 8.03068 13.3072 7.9893 13.1679C8.30654 13.6276 8.5824 14.1012 8.73413 14.6583Z" fill="#FEFEFE"/>
<path d="M12.2789 16.6363C11.1755 16.6363 10.072 16.6502 8.96857 16.6363C8.65133 16.6363 8.59616 16.7756 8.56858 17.0402C8.55478 17.1935 8.5134 17.2631 8.36168 17.2352C8.33409 17.2352 8.29271 17.2352 8.26513 17.2352C8.14099 17.2492 8.09961 17.2074 8.09961 17.0681C8.1134 16.9288 8.09961 16.7895 8.09961 16.6502C8.15478 16.6224 8.20995 16.6224 8.27892 16.6224C9.56168 16.6224 10.8306 16.6224 12.1134 16.6224C12.1824 16.6224 12.2375 16.6084 12.2789 16.6363Z" fill="#F0F0F0"/>
<path d="M8.12724 17.876C8.27896 17.876 8.43069 17.876 8.56862 17.876C8.65138 17.876 8.66517 17.9178 8.69276 17.9735C8.73413 18.1546 8.85827 18.1964 9.03758 18.1964C10.0583 18.1824 11.0652 18.1964 12.0859 18.1964C12.0307 18.2242 11.9755 18.2242 11.9341 18.2242C10.7755 18.2242 9.61689 18.2242 8.45827 18.2242C8.1962 18.2242 8.08586 18.1128 8.12724 17.876Z" fill="#FEFEFE"/>
<path d="M9.18927 18.5585C9.27203 18.7257 9.28583 18.9207 9.35479 19.0878C9.38238 19.1575 9.341 19.1714 9.28583 19.1714C9.17548 19.1714 9.06514 19.1714 8.95479 19.1714C8.81686 19.0182 8.78927 18.8371 8.76169 18.6421C8.74789 18.5725 8.77548 18.5446 8.84445 18.5446C8.95479 18.5585 9.06514 18.5585 9.18927 18.5585Z" fill="#FEFEFE"/>
<path d="M6.47204 9.37918C6.58238 9.47669 6.70652 9.40704 6.83066 9.42097C6.83066 9.58812 6.83066 9.7692 6.83066 9.93635C6.83066 10.0478 6.78928 10.0756 6.69273 10.0756C6.58238 10.0617 6.48583 10.0756 6.37549 10.0756C6.37549 9.83884 6.40307 9.60205 6.47204 9.37918Z" fill="#FEFEFE"/>
<path d="M9.40997 6.73264C9.40997 6.64907 9.40997 6.57942 9.40997 6.49585C9.80997 6.38441 10.2238 6.35655 10.6238 6.39834C10.3617 6.44013 10.0996 6.46799 9.85135 6.55156C9.71342 6.60728 9.5617 6.67693 9.40997 6.73264Z" fill="#EFEFE6"/>
<path d="M8.16852 17.2631C8.63748 17.2631 9.10645 17.2631 9.57541 17.2631C10.472 17.2631 11.3685 17.2631 12.2789 17.2631C12.2375 17.291 12.1823 17.277 12.1409 17.277C10.8582 17.277 9.58921 17.277 8.30645 17.277C8.26507 17.277 8.2099 17.291 8.16852 17.2631Z" fill="#F0F0F0"/>
<path d="M13.0513 9.96422C13.0375 10.0199 13.0375 10.1035 13.0238 10.201C13.01 10.2985 12.941 10.3542 12.8444 10.3403C12.7479 10.3264 12.6927 10.2567 12.7065 10.1592C12.7065 10.0478 12.7341 9.95029 12.7203 9.83885C12.6789 9.40705 12.4996 9.04489 12.1962 8.73845C12.141 8.68273 12.0858 8.64094 12.0996 8.54344C12.1134 8.47379 12.1548 8.41808 12.2238 8.40415C12.2927 8.37629 12.3617 8.41808 12.4169 8.45986C12.8031 8.84988 13.0375 9.3374 13.0513 9.96422Z" fill="#030202"/>
<path d="M7.45132 12.0257C7.2858 12.0257 7.12028 12.0257 6.95477 12.0257C6.85821 12.0257 6.83063 11.9979 6.83063 11.9004C6.83063 11.7611 6.83063 11.6357 6.83063 11.4964C6.83063 11.4129 6.85821 11.3711 6.94097 11.3711C7.17545 11.3571 7.17545 11.3571 7.17545 11.1203C7.27201 11.4129 7.36856 11.7193 7.45132 12.0257Z" fill="#FEFEFE"/>
<path d="M6.83063 9.42098C6.83063 9.25383 6.83063 9.10061 6.83063 8.93346C6.83063 8.8081 6.85821 8.75238 6.99614 8.76631C7.13408 8.78024 7.27201 8.76631 7.40994 8.76631C7.29959 9.01704 7.25821 9.29562 7.16166 9.56028C7.16166 9.46277 7.13408 9.40705 7.02373 9.42098C6.96856 9.42098 6.89959 9.42098 6.83063 9.42098Z" fill="#FEFEFE"/>
</svg>
